<?xml version="1.0" standalone="no"?>
<!DOCTYPE svg PUBLIC "-//W3C//DTD SVG 20010904//EN"
 "http://www.w3.org/TR/2001/REC-SVG-20010904/DTD/svg10.dtd">
<svg version="1.0" xmlns="http://www.w3.org/2000/svg"
 width="700.000000pt" height="700.000000pt" viewBox="0 0 700.000000 700.000000"
 preserveAspectRatio="xMidYMid meet">
<metadata>
Created by potrace 1.11, written by Peter Selinger 2001-2013
</metadata>
<g transform="translate(0.000000,700.000000) scale(0.100000,-0.100000)"
fill="#000000" stroke="none">
<path d="M5813 6989 c-194 -25 -385 -108 -537 -234 l-68 -57 743 -745 744
-744 38 43 c56 63 141 194 172 263 73 166 106 370 87 539 -17 142 -43 232
-107 361 -194 399 -630 632 -1072 574z"/>
<path d="M2495 3979 l-1870 -1871 50 5 c28 3 166 18 307 33 l257 28 1701 1701
1700 1700 -138 138 -137 137 -1870 -1871z"/>
<path d="M3128 3683 l-1697 -1698 -35 -310 c-19 -170 -33 -311 -33 -311 1 -1
142 14 312 33 l310 34 1700 1700 1700 1699 -275 275 c-151 151 -277 275 -280
275 -3 0 -769 -764 -1702 -1697z"/>
<path d="M3874 2937 l-1701 -1702 -32 -298 c-18 -164 -31 -300 -29 -302 2 -2
844 836 1871 1863 l1867 1867 -138 138 -137 137 -1701 -1703z"/>
<path d="M365 541 c-16 -10 -92 -82 -169 -159 l-138 -139 -28 -119 c-16 -65
-28 -120 -27 -121 1 -1 56 12 121 27 l119 29 144 143 c80 79 151 155 159 170
57 108 -77 234 -181 169z"/>
</g>
</svg>
